
<svg width="100%" height="100%" id="svg" viewBox="0 0 1440 320" xmlns="http://www.w3.org/2000/svg" class="transition duration-300 ease-in-out delay-150"><path d="M 0,500 L 0,125 C 69.74162679425837,94.45454545454545 139.48325358851673,63.90909090909091 251,81 C 362.51674641148327,98.0909090909091 515.8086124401914,162.8181818181818 611,168 C 706.1913875598086,173.1818181818182 743.2822966507177,118.81818181818183 836,112 C 928.7177033492823,105.18181818181817 1077.0622009569377,145.9090909090909 1187,156 C 1296.9377990430623,166.0909090909091 1368.468899521531,145.54545454545456 1440,125 L 1440,500 L 0,500 Z" stroke="none" stroke-width="0" fill="#000000"  class="transition-all duration-300 ease-in-out delay-150 path-0"></path><path d="M 0,500 L 0,291 C 85.29186602870817,327.4976076555024 170.58373205741634,363.9952153110048 277,345 C 383.41626794258366,326.0047846889952 510.956937799043,251.5167464114832 600,230 C 689.043062200957,208.4832535885168 739.5885167464115,239.93779904306223 839,245 C 938.4114832535885,250.06220095693777 1086.688995215311,228.73205741626796 1195,232 C 1303.311004784689,235.26794258373204 1371.6555023923445,263.13397129186603 1440,291 L 1440,500 L 0,500 Z" stroke="none" stroke-width="0" fill="#2d79f3" fill-opacity="1" class="transition-all duration-300 ease-in-out delay-150 path-1"></path></svg>

